<svg width="86" height="66" viewBox="0 0 86 66" fill="none" xmlns="http://www.w3.org/2000/svg">
<path d="M86 31.5281V34.474C85.9731 34.6338 85.9391 34.7907 85.9214 34.9497C85.7749 36.2312 85.6801 37.5207 85.4776 38.7925C84.8166 42.9263 83.3874 46.7683 81.264 50.321C78.0392 55.7148 73.6797 59.828 68.2012 62.6368C65.0392 64.2657 61.63 65.3124 58.1246 65.7307C57.3461 65.8242 56.5682 65.9082 55.7896 65.9973H25.577C25.4249 65.9677 25.2734 65.9207 25.1198 65.9111C22.0734 65.7115 19.1422 64.9891 16.3485 63.7172C10.2662 60.9481 5.73121 56.4602 2.76262 50.2828C1.45085 47.5579 0.601928 44.6176 0.253399 41.5918C0.167753 40.8561 0.0842305 40.1212 0 39.3862V36.528C0.0290206 36.3696 0.0736132 36.2113 0.0828148 36.0522C0.240658 33.306 0.78214 30.6393 1.73557 28.0763C4.30142 21.1802 8.77415 16.0655 15.1303 12.7552C18.4281 11.037 21.9431 10.1342 25.6195 9.93384C27.4195 9.83662 29.2181 9.94115 31.0074 10.1908C31.1695 10.2136 31.4031 10.1385 31.5156 10.0185C34.0886 7.28403 37.0182 5.06288 40.3216 3.37934C43.5259 1.74662 46.8979 0.694222 50.4477 0.272969C51.2829 0.173548 52.1202 0.0918004 52.9569 0.00195312H55.5326C55.7011 0.029202 55.8702 0.0601332 56.0387 0.0807539C57.315 0.235409 58.5982 0.332622 59.8624 0.552822C63.8063 1.24141 67.4778 2.71432 70.8754 4.90233C76.0849 8.25762 80.055 12.7993 82.7673 18.5172C84.3361 21.8087 85.3431 25.3586 85.7438 29.0087C85.8358 29.8491 85.9143 30.6893 86 31.5281ZM37.9143 12.4665C37.966 12.5372 37.9787 12.5703 38.0006 12.5813C39.7695 13.4885 41.4601 14.5521 43.0538 15.7607C43.1543 15.8365 43.4034 15.8048 43.5252 15.7252C47.9052 12.8377 52.6532 11.8412 57.7538 12.7825C62.7517 13.7045 66.8188 16.3027 69.9262 20.4526C73.4447 25.149 74.786 30.4596 73.8149 36.3682C73.1637 40.3281 71.639 43.8808 69.0478 46.8567C64.3195 52.2822 58.3986 54.5262 51.4287 53.5762C47.1379 52.9914 43.4339 51.0656 40.3683 47.8421C36.4336 43.7069 32.4733 39.599 28.5272 35.4749C28.0013 34.9255 27.4159 34.4835 26.6586 34.3871C25.3357 34.2184 24.1352 34.9056 23.564 36.1421C23.0544 37.246 23.1202 38.4906 24.2258 39.6218C28.6249 44.115 32.985 48.6493 37.3792 53.1468C38.1313 53.9205 38.9379 54.6347 39.7922 55.2832C43.0022 57.7084 46.6212 59.0495 50.5404 59.5893C53.6166 60.0121 56.6687 59.9215 59.6974 59.213C65.4746 57.8631 70.2602 54.795 74.0294 50.061C77.1417 46.149 79.0238 41.6537 79.6799 36.6068C80.0602 33.7288 79.9807 30.8052 79.4449 27.9542C78.5707 23.2924 76.6752 19.1211 73.6379 15.5706C67.843 8.80039 60.5525 5.77798 51.8767 6.45257C48.5394 6.71181 45.3825 7.73179 42.4118 9.34983C40.8087 10.2164 39.3007 11.2614 37.9143 12.4665ZM35.7916 59.7292C35.6722 59.6142 35.5533 59.4986 35.4348 59.3824C33.6362 57.6156 31.8278 55.8599 30.0505 54.0704C29.7065 53.7242 29.3901 53.5556 28.9031 53.5673C27.1031 53.613 25.3017 53.6211 23.5279 53.2042C14.7085 51.1289 9.58737 41.1522 12.8377 32.3736C15.4014 25.4517 22.4987 21.2362 29.4977 22.536C32.6347 23.1186 35.3881 24.5001 37.6482 26.9253C40.4044 29.8859 43.2428 32.7617 46.0287 35.6921C46.663 36.3593 47.3913 36.6635 48.2697 36.5331C49.405 36.3644 50.309 35.8018 50.7194 34.6433C51.1215 33.5033 50.9269 32.4237 50.0973 31.5496C47.1733 28.4674 44.3186 25.3081 41.2765 22.3571C35.3761 16.6311 28.4182 14.9284 20.7228 17.3632C10.3724 20.6352 4.31486 31.7558 6.67969 42.7289C8.83504 52.7271 17.239 59.744 27.0726 59.7529C29.8183 59.7558 32.5646 59.7543 35.3102 59.7529C35.4462 59.7529 35.5821 59.7403 35.7916 59.7292Z" fill="#DA1F26"/>
</svg>
