<svg width="32" height="29" viewBox="0 0 32 29" fill="none" xmlns="http://www.w3.org/2000/svg">
<path d="M16 0C7.16429 0 0 6.66094 0 14.869C0 21.4393 4.58571 27.0062 10.9429 28.9741C11.032 28.9916 11.123 29.0003 11.2143 29C11.8071 29 12.0357 28.6051 12.0357 28.262C12.0357 27.906 12.0214 26.9739 12.0143 25.731C11.485 25.8435 10.9436 25.9021 10.4 25.9058C7.32143 25.9058 6.62143 23.7373 6.62143 23.7373C5.89286 22.0219 4.84286 21.5623 4.84286 21.5623C3.45 20.6754 4.83571 20.6495 4.94286 20.6495H4.95C6.55714 20.779 7.4 22.1902 7.4 22.1902C8.2 23.4589 9.27143 23.8149 10.2286 23.8149C10.8615 23.8035 11.4845 23.6711 12.0571 23.4266C12.2 22.4685 12.6143 21.8147 13.0714 21.4393C9.52143 21.0638 5.78571 19.7886 5.78571 14.0922C5.78571 12.4674 6.40714 11.1404 7.42857 10.1047C7.26429 9.72924 6.71429 8.21451 7.58571 6.16897C7.7026 6.14362 7.82274 6.13274 7.94286 6.13661C8.52143 6.13661 9.82857 6.33727 11.9857 7.69665C14.6068 7.03205 17.3789 7.03205 20 7.69665C22.1571 6.33727 23.4643 6.13661 24.0429 6.13661C24.163 6.13274 24.2831 6.14362 24.4 6.16897C25.2714 8.21451 24.7214 9.72924 24.5571 10.1047C25.5786 11.1469 26.2 12.4739 26.2 14.0922C26.2 19.8016 22.4571 21.0574 18.8929 21.4263C19.4643 21.8859 19.9786 22.7922 19.9786 24.1774C19.9786 26.1647 19.9571 27.7701 19.9571 28.2556C19.9571 28.6051 20.1786 29 20.7714 29C20.8674 29.0004 20.9632 28.9917 21.0571 28.9741C27.4214 27.0062 32 21.4328 32 14.869C32 6.66094 24.8357 0 16 0Z" fill="#C4C4C4"/>
</svg>
