<svg width="31" height="31" viewBox="0 0 31 31" fill="none" xmlns="http://www.w3.org/2000/svg">
<path d="M28.5206 0H2.64884C1.23515 0 0 1.01719 0 2.41426V28.3435C0 29.7482 1.23515 31 2.64884 31H28.513C29.9343 31 31 29.7399 31 28.3435V2.41426C31.0083 1.01719 29.9343 0 28.5206 0ZM9.60929 25.84H5.16827V12.0319H9.60929V25.84ZM7.5424 9.93245H7.51057C6.08928 9.93245 5.16896 8.87444 5.16896 7.55002C5.16896 6.20138 6.1135 5.16828 7.56662 5.16828C9.01974 5.16828 9.90891 6.19377 9.94074 7.55002C9.94005 8.87444 9.01974 9.93245 7.5424 9.93245ZM25.84 25.84H21.399V18.29C21.399 16.4812 20.7527 15.2454 19.1459 15.2454C17.9184 15.2454 17.1918 16.0757 16.8687 16.8846C16.7476 17.1752 16.7151 17.571 16.7151 17.9752V25.84H12.274V12.0319H16.7151V13.9535C17.3614 13.0331 18.3709 11.7087 20.7201 11.7087C23.6354 11.7087 25.8407 13.6303 25.8407 17.7731L25.84 25.84Z" fill="#C4C4C4"/>
</svg>
