<svg width="100" height="100" viewBox="0 0 100 100" fill="none" xmlns="http://www.w3.org/2000/svg">
<rect width="100" height="100" rx="8" fill="black"/>
<path d="M69.1721 69.6118C68.2053 69.6118 67.4086 69.1105 66.782 68.1079C66.2449 67.2485 65.7615 65.8162 65.3318 63.811L64.365 59.1919C63.6309 56.3273 62.4672 50.0073 60.8738 40.2319L55.5027 56.4258L53.9182 61.5283C53.2737 63.5514 52.6023 65.2075 51.9041 66.4966C51.1521 67.8573 50.1405 68.5376 48.8694 68.5376C47.8131 68.5376 46.9806 67.9647 46.3718 66.8188C45.9779 66.0669 45.6199 65.109 45.2976 63.9453L44.5188 60.9644C42.7105 54.6444 41.1171 47.8768 39.7385 40.6616L38.7717 45.4688L35.3074 59.6484C35.1641 61.3135 34.7166 63.7752 33.9646 67.0337C33.4275 68.4302 32.5413 69.1284 31.3059 69.1284C30.4286 69.1284 29.7304 68.8151 29.2112 68.1885C28.7636 67.6514 28.5398 66.9889 28.5398 66.2012C28.5398 63.2113 29.1575 59.541 30.3928 55.1904L33.3469 44.3677L34.9045 35.9082C35.6923 31.9515 36.5248 29.3644 37.4021 28.147C38.1182 27.1086 39.0045 26.5894 40.0608 26.5894C41.2245 26.5894 42.0929 27.2518 42.6658 28.5767C43.364 30.1701 44.116 33.4196 44.9216 38.3252C45.8705 44.2155 47.3476 50.5892 49.3528 57.4463C52.0025 50.5534 54.2942 43.374 56.2278 35.9082L57.0334 31.9873C57.3557 30.4118 57.7764 29.1406 58.2957 28.1738C58.9939 26.849 59.9517 26.1865 61.1692 26.1865C62.7089 26.1865 63.8816 27.6725 64.6873 30.6445C64.9737 31.665 65.3228 33.7777 65.7346 36.9824C66.7909 45.0749 68.1069 51.9857 69.6824 57.7148L70.9983 62.334C71.6786 64.8047 72.0188 66.3265 72.0188 66.8994C72.0188 67.6693 71.7234 68.3138 71.1326 68.833C70.5597 69.3522 69.9062 69.6118 69.1721 69.6118Z" fill="#FAB874"/>
</svg>
