<svg width="93" height="93" viewBox="0 0 93 93" fill="none" xmlns="http://www.w3.org/2000/svg">
<rect width="93" height="93" rx="8" fill="black"/>
<path d="M63.6729 69.0264C62.7939 69.0264 62.0697 68.5706 61.5 67.6592C61.0117 66.8779 60.5723 65.5758 60.1816 63.7529L59.3027 59.5537C58.6354 56.9495 57.5775 51.2041 56.1289 42.3174L51.2461 57.0391L49.8057 61.6777C49.2197 63.5169 48.6094 65.0225 47.9746 66.1943C47.291 67.4313 46.3714 68.0498 45.2158 68.0498C44.2555 68.0498 43.4987 67.529 42.9453 66.4873C42.5872 65.8037 42.2617 64.9329 41.9688 63.875L41.2607 61.165C39.6169 55.4196 38.1683 49.2673 36.915 42.708L36.0361 47.0781L32.8867 59.9688C32.7565 61.4824 32.3496 63.7204 31.666 66.6826C31.1777 67.9521 30.3721 68.5869 29.249 68.5869C28.4515 68.5869 27.8167 68.3021 27.3447 67.7324C26.9378 67.2441 26.7344 66.6419 26.7344 65.9258C26.7344 63.2077 27.2959 59.8711 28.4189 55.916L31.1045 46.0771L32.5205 38.3867C33.2367 34.7897 33.9935 32.4378 34.791 31.3311C35.4421 30.387 36.2477 29.915 37.208 29.915C38.266 29.915 39.0553 30.5173 39.5762 31.7217C40.2109 33.1702 40.8945 36.1243 41.627 40.584C42.4896 45.9388 43.8324 51.7331 45.6553 57.9668C48.0641 51.7005 50.1475 45.1738 51.9053 38.3867L52.6377 34.8223C52.9307 33.39 53.3132 32.2344 53.7852 31.3555C54.4199 30.151 55.2907 29.5488 56.3975 29.5488C57.7972 29.5488 58.8633 30.8997 59.5957 33.6016C59.8561 34.5293 60.1735 36.4499 60.5479 39.3633C61.5081 46.7201 62.7044 53.0026 64.1367 58.2109L65.333 62.4102C65.9515 64.6562 66.2607 66.0397 66.2607 66.5605C66.2607 67.2604 65.9922 67.8464 65.4551 68.3184C64.9342 68.7904 64.3402 69.0264 63.6729 69.0264Z" fill="#FAB874"/>
</svg>
