<svg width="32" height="26" viewBox="0 0 32 26" fill="none" xmlns="http://www.w3.org/2000/svg">
<path d="M32 3.08073C30.7996 3.61045 29.5296 3.95944 28.23 4.11667C29.5958 3.30443 30.6229 2.01403 31.1187 0.48751C29.8274 1.25437 28.417 1.79243 26.948 2.07865C26.3294 1.42021 25.5854 0.896402 24.7613 0.539066C23.9372 0.18173 23.0501 -0.00167058 22.154 1.1466e-05C18.526 1.1466e-05 15.59 2.93854 15.59 6.56093C15.5874 7.06479 15.6443 7.56715 15.7593 8.05728C13.1578 7.93341 10.6104 7.25939 8.27999 6.07834C5.94963 4.89729 3.88766 3.23521 2.226 1.19845C1.64305 2.19654 1.33475 3.33534 1.33333 4.49583C1.33333 6.77082 2.502 8.78176 4.26667 9.95988C3.22115 9.93468 2.19706 9.65363 1.28133 9.14061V9.22186C1.28133 12.4041 3.548 15.0515 6.548 15.6541C5.98386 15.8069 5.40251 15.8843 4.81867 15.8843C4.40439 15.8851 3.99105 15.8442 3.58467 15.7625C4.41867 18.3692 6.846 20.2651 9.72133 20.3192C7.38492 22.148 4.51641 23.1364 1.56667 23.1291C1.04308 23.1283 0.519977 23.0967 0 23.0343C3.00079 24.9804 6.48896 26.0098 10.0493 25.9999C22.14 25.9999 28.7453 15.9994 28.7453 7.32603C28.7453 7.04166 28.738 6.75728 28.7247 6.47968C30.0067 5.55347 31.1159 4.40247 32 3.08073Z" fill="#C4C4C4"/>
</svg>
