<svg width="31" height="31" viewBox="0 0 31 31" fill="none" xmlns="http://www.w3.org/2000/svg">
<path fill-rule="evenodd" clip-rule="evenodd" d="M26.4835 4.50475C25.0505 3.07105 23.3481 1.93495 21.4742 1.16184C19.6003 0.38874 17.5921 -0.00609372 15.565 7.1092e-05C7.05802 7.1092e-05 0.132857 6.89064 0.129397 15.3616C0.125634 18.059 0.83665 20.7092 2.19006 23.0424L0 31L8.18246 28.8639C10.4474 30.0909 12.9828 30.7331 15.5588 30.7322H15.565C24.0713 30.7322 30.9958 23.841 31 15.3706C31.0051 13.3505 30.6085 11.3495 29.8331 9.48407C29.0577 7.61864 27.9191 5.92604 26.4835 4.50475ZM15.565 28.1394H15.5595C13.2631 28.1401 11.0085 27.5256 9.03012 26.3597L8.56166 26.0829L3.70615 27.3506L5.0022 22.639L4.69705 22.1546C3.41303 20.1218 2.73273 17.7661 2.73533 15.3616C2.73533 8.32231 8.49316 2.59493 15.5699 2.59493C18.9646 2.58887 22.2228 3.93148 24.6277 6.32746C27.0327 8.72344 28.3874 11.9766 28.394 15.3713C28.3913 22.4114 22.6362 28.1394 15.565 28.1394ZM22.6016 18.5772C22.2162 18.3848 20.3181 17.4562 19.9666 17.3282C19.6151 17.2002 19.3556 17.1358 19.0989 17.5206C18.8422 17.9053 18.1024 18.7661 17.8776 19.0256C17.6527 19.2851 17.4278 19.3134 17.0424 19.1211C16.6569 18.9287 15.4135 18.5239 13.9403 17.2161C12.7937 16.1982 12.0201 14.9416 11.7952 14.5576C11.5703 14.1735 11.771 13.9653 11.964 13.7743C12.1377 13.602 12.3495 13.3259 12.5425 13.1017C12.7356 12.8775 12.7999 12.717 12.9279 12.4609C13.056 12.2049 12.9923 11.9807 12.8961 11.789C12.7999 11.5974 12.0284 9.70761 11.7073 8.93884C11.3939 8.19014 11.0763 8.29186 10.8396 8.2801C10.6147 8.26903 10.3552 8.26626 10.0999 8.26626C9.9047 8.27134 9.71265 8.3166 9.53573 8.39923C9.35881 8.48186 9.20083 8.60006 9.07164 8.74648C8.71805 9.13121 7.72162 10.0612 7.72162 11.9489C7.72162 13.8366 9.10554 15.6633 9.29653 15.9194C9.48751 16.1754 12.0159 20.0525 15.8847 21.7152C16.6031 22.0229 17.3371 22.2927 18.0838 22.5235C19.0075 22.8155 19.8483 22.7746 20.5126 22.6757C21.2537 22.5657 22.796 21.7471 23.1164 20.8503C23.4368 19.9535 23.4375 19.1854 23.3413 19.0256C23.2451 18.8657 22.9877 18.7689 22.6016 18.5772Z" fill="#C4C4C4"/>
</svg>
